<?xml version="1.0" encoding="UTF-8" standalone="no"?>
<svg
   xmlns:osb="http://www.openswatchbook.org/uri/2009/osb"
   xmlns:dc="http://purl.org/dc/elements/1.1/"
   xmlns:cc="http://creativecommons.org/ns#"
   xmlns:rdf="http://www.w3.org/1999/02/22-rdf-syntax-ns#"
   xmlns:svg="http://www.w3.org/2000/svg"
   xmlns="http://www.w3.org/2000/svg"
   xmlns:sodipodi="http://sodipodi.sourceforge.net/DTD/sodipodi-0.dtd"
   xmlns:inkscape="http://www.inkscape.org/namespaces/inkscape"
   width="100mm"
   height="100mm"
   viewBox="0 0 100 100"
   version="1.1"
   id="svg8"
   inkscape:version="1.0.1 (3bc2e81, 2020-09-07)"
   sodipodi:docname="icon.svg"
   inkscape:export-filename="/mnt/hub/dev/vuejs/vue-flip-flop-card/local/icon.png"
   inkscape:export-xdpi="600"
   inkscape:export-ydpi="600">
  <defs
     id="defs2">
    <linearGradient
       id="linearGradient3053"
       osb:paint="solid">
      <stop
         style="stop-color:#f687da;stop-opacity:1;"
         offset="0"
         id="stop3051" />
    </linearGradient>
  </defs>
  <sodipodi:namedview
     id="base"
     pagecolor="#ffffff"
     bordercolor="#666666"
     borderopacity="1.0"
     inkscape:pageopacity="0.0"
     inkscape:pageshadow="2"
     inkscape:zoom="1.4"
     inkscape:cx="166.77928"
     inkscape:cy="220.75992"
     inkscape:document-units="mm"
     inkscape:current-layer="layer1"
     inkscape:document-rotation="0"
     showgrid="false"
     inkscape:window-width="1870"
     inkscape:window-height="1023"
     inkscape:window-x="50"
     inkscape:window-y="27"
     inkscape:window-maximized="1" />
  <metadata
     id="metadata5">
    <rdf:RDF>
      <cc:Work
         rdf:about="">
        <dc:format>image/svg+xml</dc:format>
        <dc:type
           rdf:resource="http://purl.org/dc/dcmitype/StillImage" />
        <dc:title></dc:title>
      </cc:Work>
    </rdf:RDF>
  </metadata>
  <g
     inkscape:label="Layer 1"
     inkscape:groupmode="layer"
     id="layer1">
    <g
       id="g1003"
       transform="matrix(1.2945557,0,0,1.1716492,-88.066418,-7.5092414)"
       style="fill:#f68701;fill-opacity:1;stroke:#276866;stroke-width:0.56838;stroke-miterlimit:4;stroke-dasharray:none;stroke-opacity:1">
      <path
         style="fill:#f68701;fill-opacity:1;stroke:#276866;stroke-width:0.56838;stroke-miterlimit:4;stroke-dasharray:none;stroke-opacity:1"
         d="m 121.22404,84.661948 c -2.31819,-0.397493 -4.1149,-1.375233 -5.33315,-2.902202 -1.36024,-1.704945 -1.90144,-3.865945 -1.90326,-7.59974 -0.15938,-6.347637 2.04541,-12.598134 2.14324,-18.946814 0,-2.664708 -0.076,-1.594968 -0.51418,-4.085271 l -2.29577,-13.048545 -0.25502,-2.267925 c -0.34306,-3.050983 -0.34248,-7.976479 0.001,-10.208168 0.9028,-5.862235 5.52439,-10.161439 8.7698,-11.051518 2.04334,-0.560403 3.21829,-0.602874 5.78114,0.0063 3.19778,0.760123 5.56174,2.60603 7.93828,4.828078 2.26954,2.122004 3.73043,4.347466 4.75164,7.238443 0.71394,2.021135 0.85506,2.914615 0.86485,5.475681 0.0106,2.77831 -0.35038,3.636971 -1.30776,8.98953 L 139.069,45.53921 c 0.14011,4.886197 -1.32332,11.712093 -2.87498,15.532962 l -0.58554,4.447785 c -1.54746,11.754577 -2.6462,15.51141 -5.19281,17.755481 -0.81944,0.722074 -1.83569,1.208291 -3.03126,1.450275 -1.04939,0.212396 -4.77475,0.173813 -6.16053,-0.06381 z"
         id="path1011"
         sodipodi:nodetypes="ssccscscssssssccsssss" />
    </g>
    <path
       style="fill:#1c4548;fill-opacity:1;stroke:#458766;stroke-width:0.565;stroke-miterlimit:4;stroke-dasharray:none;stroke-opacity:1"
       d="m 83.140291,67.951742 c -0.672947,-0.413864 -1.189369,-1.226368 -1.189369,-1.871278 0,-0.58729 0.552068,-1.812123 1.20232,-2.667503 0.310235,-0.408101 1.615531,-1.881088 2.900647,-3.273306 2.847776,-3.085086 3.831616,-4.378758 4.923886,-6.474521 1.218607,-2.338171 1.418569,-3.178824 1.296645,-5.451159 -0.05544,-1.033381 -0.228417,-2.301624 -0.38438,-2.818314 -0.935478,-3.099139 -5.25611,-9.945281 -8.843859,-14.013291 -1.628734,-1.846759 -5.880467,-5.66371 -6.717683,-6.030729 -0.974093,-0.427028 -2.10609,-0.383912 -3.045614,0.115993 -2.501419,1.330981 -6.771566,11.991653 -10.023853,17.894531 -1.993974,3.619056 -0.0746,3.047257 -0.08462,5.95667 1.010416,4.674708 1.96726,5.99502 4.843626,9.983098 1.390693,1.888962 0.08042,1.340669 0.829142,2.690466 0.758557,1.367521 1.339906,3.04702 1.339906,3.870953 0,0.520987 -0.114647,0.731982 -0.671637,1.236093 -0.554454,0.501813 -0.791384,0.607873 -1.35795,0.607873 -2.043318,0 -4.401208,-3.013339 -6.515594,-8.326814 -2.167974,-5.44814 -3.128691,-11.44101 -2.716258,-16.943753 0.641391,-8.557533 3.43463,-15.254516 8.233981,-19.741534 0.66604,-0.622697 2.109839,-1.731587 3.208438,-2.464202 1.098599,-0.732615 2.128308,-1.512778 2.288244,-1.733695 0.159936,-0.220918 0.446244,-0.909382 0.636245,-1.529922 0.364065,-1.189049 0.733659,-1.8299 1.13592,-1.969606 0.313656,-0.108928 1.382221,0.21071 1.638427,0.490111 0.109208,0.1191 0.314701,0.872918 0.456644,1.675152 0.141943,0.802234 0.363631,1.60557 0.49264,1.78519 0.129003,0.179621 0.766622,0.613877 1.416918,0.965011 3.609025,1.948742 7.707443,6.316111 11.148679,11.88029 4.184164,6.765433 5.455377,11.789246 4.55905,18.017278 -0.659967,4.585676 -2.701382,10.574854 -4.894306,14.359097 -0.843285,1.455225 -2.760517,3.506608 -3.679084,3.93652 -0.739848,0.346266 -1.71347,0.28421 -2.427147,-0.154704 z"
       id="path1013"
       sodipodi:nodetypes="sssssssssssccsssssssssssssssssssss" />
    <rect
       style="fill:#f68701;fill-opacity:1;stroke:#458766;stroke-width:1.965;stroke-miterlimit:4;stroke-dasharray:3.93,1.965;stroke-dashoffset:0;stroke-opacity:1"
       id="rect1107"
       width="45.33672"
       height="83.279175"
       x="6.1279249"
       y="8.5383015"
       rx="11.660928"
       ry="3.4427848" />
  </g>
</svg>
